<?xml version="1.0" encoding="iso-8859-1"?>
<!-- Generator: Adobe Illustrator 27.1.1, SVG Export Plug-In . SVG Version: 6.00 Build 0)  -->
<svg version="1.1" id="&#x30EC;&#x30A4;&#x30E4;&#x30FC;_1"
	 xmlns="http://www.w3.org/2000/svg" xmlns:xlink="http://www.w3.org/1999/xlink" x="0px" y="0px" viewBox="0 0 1000 1000"
	 style="enable-background:new 0 0 1000 1000;" xml:space="preserve">
<g>
	<g>
		<g>
			<path style="fill:#364936;" d="M558.418,620.214l144.108-144.113c28.019-28.02,73.13-32.072,104.048-7.288
				c36.548,29.296,38.724,82.827,6.542,115.014l-36.387,36.387l34.952,34.952c28.016,28.016,32.071,73.122,7.295,104.041
				c-29.292,36.552-82.83,38.735-115.018,6.548L558.418,620.214z"/>
		</g>
		<g>
			<path style="fill:#364936;" d="M590.388,620.213c0-42.576,34.475-77.111,77.05-77.185l178.734-0.312
				c42.606-0.074,77.185,34.444,77.185,77.05v0.138c0,42.575-34.474,77.109-77.049,77.183L667.573,697.4
				c-42.606,0.074-77.185-34.444-77.185-77.05V620.213z"/>
		</g>
	</g>
	<g>
		<g>
			<path style="fill:#364936;" d="M441.582,620.214L297.474,476.101c-28.019-28.02-73.13-32.072-104.048-7.288
				c-36.548,29.296-38.724,82.827-6.542,115.014l36.387,36.387l-34.952,34.952c-28.017,28.016-32.071,73.122-7.295,104.041
				c29.292,36.552,82.83,38.735,115.018,6.548L441.582,620.214z"/>
		</g>
		<g>
			<path style="fill:#364936;" d="M409.612,620.213c0-42.576-34.475-77.111-77.05-77.185l-178.735-0.312
				c-42.606-0.074-77.185,34.444-77.185,77.05v0.138c0,42.575,34.474,77.109,77.049,77.183l178.736,0.312
				c42.606,0.074,77.185-34.444,77.185-77.05V620.213z"/>
		</g>
	</g>
	<g>
		<path style="fill:#364936;" d="M500.358,576.578L354.815,431.04c-30.143-30.143-30.143-79.015-0.003-109.158
			c30.146-30.146,79.013-30.143,109.158-0.003l36.387,36.387l36.384-36.384c30.141-30.146,79.015-30.146,109.156,0
			c30.143,30.143,30.143,79.013,0,109.156L500.358,576.578z"/>
	</g>
	<g>
		<path style="fill:#364936;" d="M500.356,544.608c-42.568,0-77.108-34.467-77.183-77.05l-0.312-178.598
			c-0.075-42.631,34.422-77.246,77.05-77.322c0.045,0,0.093,0,0.138,0c42.568,0,77.108,34.467,77.183,77.05l0.312,178.598
			c0.075,42.628-34.422,77.246-77.05,77.322C500.449,544.608,500.401,544.608,500.356,544.608z"/>
	</g>
</g>
</svg>
